{
  "accessors": [
    {
      "bufferView": 1,
      "componentType": 5126,
      "count": 241,
      "max": [
        29.655580520629883,
        48.930469512939453,
        5.353294849395752
      ],
      "min": [
        1.5382529497146606,
        6.1023621559143066,
        0
      ],
      "type": "VEC3"
    },
    {
      "bufferView": 1,
      "byteOffset": 2892,
      "componentType": 5126,
      "count": 241,
      "max": [
        1,
        0.89435267448425293,
        1
      ],
      "min": [
        -0.90908241271972656,
        -0.89389342069625854,
        -0.99522531032562256
      ],
      "type": "VEC3"
    },
    {
      "bufferView": 0,
      "componentType": 5125,
      "count": 273,
      "max": [
        240
      ],
      "min": [
        0
      ],
      "type": "SCALAR"
    },
    {
      "bufferView": 1,
      "byteOffset": 5784,
      "componentType": 5126,
      "count": 61,
      "max": [
        1.5382529497146606,
        28.263599395751953,
        2.6861019134521484
      ],
      "min": [
        -1.1368679706403456e-13,
        26.76923942565918,
        1.5958199501037598
      ],
      "type": "VEC3"
    },
    {
      "bufferView": 1,
      "byteOffset": 6516,
      "componentType": 5126,
      "count": 61,
      "max": [
        0.62728959321975708,
        0.85364151000976562,
        0.99060869216918945
      ],
      "min": [
        -0.90441930294036865,
        -0.85364151000976562,
        -0.99012082815170288
      ],
      "type": "VEC3"
    },
    {
      "bufferView": 0,
      "byteOffset": 1092,
      "componentType": 5125,
      "count": 69,
      "max": [
        60
      ],
      "min": [
        0
      ],
      "type": "SCALAR"
    },
    {
      "bufferView": 1,
      "byteOffset": 7248,
      "componentType": 5126,
      "count": 12,
      "max": [
        24.138250350952148,
        30.07710075378418,
        1.5349149703979492
      ],
      "min": [
        18.97920036315918,
        24.955739974975586,
        0
      ],
      "type": "VEC3"
    },
    {
      "bufferView": 1,
      "byteOffset": 7392,
      "componentType": 5126,
      "count": 12,
      "max": [
        0.83632630109786987,
        0.54823213815689087,
        3.3306696032710617e-16
      ],
      "min": [
        0.20201340317726135,
        -0.54823213815689087,
        -0.94586700201034546
      ],
      "type": "VEC3"
    },
    {
      "bufferView": 0,
      "byteOffset": 1368,
      "componentType": 5125,
      "count": 12,
      "max": [
        11
      ],
      "min": [
        0
      ],
      "type": "SCALAR"
    },
    {
      "bufferView": 1,
      "byteOffset": 7536,
      "componentType": 5126,
      "count": 9,
      "max": [
        17.29149055480957,
        12.204719543457031,
        5.353294849395752
      ],
      "min": [
        9.6510915756225586,
        0,
        3.0698308944702148
      ],
      "type": "VEC3"
    },
    {
      "bufferView": 1,
      "byteOffset": 7644,
      "componentType": 5126,
      "count": 9,
      "max": [
        0.079212278127670288,
        0.20921863615512848,
        0.98294389247894287
      ],
      "min": [
        -0.62407398223876953,
        -0.78136527538299561,
        -0.9746553897857666
      ],
      "type": "VEC3"
    },
    {
      "bufferView": 0,
      "byteOffset": 1416,
      "componentType": 5125,
      "count": 9,
      "max": [
        8
      ],
      "min": [
        0
      ],
      "type": "SCALAR"
    },
    {
      "bufferView": 1,
      "byteOffset": 7752,
      "componentType": 5126,
      "count": 9,
      "max": [
        17.29149055480957,
        55.032840728759766,
        5.353294849395752
      ],
      "min": [
        9.6510915756225586,
        42.828109741210938,
        3.0698308944702148
      ],
      "type": "VEC3"
    },
    {
      "bufferView": 1,
      "byteOffset": 7860,
      "componentType": 5126,
      "count": 9,
      "max": [
        0.079212278127670288,
        0.78136527538299561,
        0.98294389247894287
      ],
      "min": [
        -0.62407398223876953,
        -0.20921863615512848,
        -0.9746553897857666
      ],
      "type": "VEC3"
    },
    {
      "bufferView": 0,
      "byteOffset": 1452,
      "componentType": 5125,
      "count": 9,
      "max": [
        8
      ],
      "min": [
        0
      ],
      "type": "SCALAR"
    }
  ],
  "asset": {
    "extras": {
      "author": "gashtan (https://sketchfab.com/gashtan)",
      "license": "CC-BY-4.0 (http://creativecommons.org/licenses/by/4.0/)",
      "source": "https://sketchfab.com/models/25715899cf5f43fb8eb45675d10080da",
      "title": "flying seagul"
    },
    "generator": "Sketchfab-3.18.7",
    "version": "2.0"
  },
  "bufferViews": [
    {
      "buffer": 0,
      "byteLength": 1488,
      "byteOffset": 0,
      "name": "floatBufferViews",
      "target": 34963
    },
    {
      "buffer": 0,
      "byteLength": 7968,
      "byteOffset": 1488,
      "byteStride": 12,
      "name": "floatBufferViews",
      "target": 34962
    }
  ],
  "buffers": [
    {
      "byteLength": 9456,
      "uri": "scene.bin"
    }
  ],
  "materials": [
    {
      "doubleSided": false,
      "emissiveFactor": [
        0,
        0,
        0
      ],
      "name": "material",
      "pbrMetallicRoughness": {
        "baseColorFactor": [
          1,
          1,
          1,
          1
        ],
        "metallicFactor": 0,
        "roughnessFactor": 0.59999999999999998
      }
    },
    {
      "doubleSided": false,
      "emissiveFactor": [
        0,
        0,
        0
      ],
      "name": "material_5",
      "pbrMetallicRoughness": {
        "baseColorFactor": [
          0.86666699999999997,
          0.65098,
          0.24313699999999999,
          1
        ],
        "metallicFactor": 0,
        "roughnessFactor": 0.59999999999999998
      }
    },
    {
      "doubleSided": false,
      "emissiveFactor": [
        0,
        0,
        0
      ],
      "name": "dark_grey",
      "pbrMetallicRoughness": {
        "baseColorFactor": [
          0.247059,
          0.247059,
          0.247059,
          1
        ],
        "metallicFactor": 0,
        "roughnessFactor": 0.59999999999999998
      }
    }
  ],
  "meshes": [
    {
      "name": "Material2",
      "primitives": [
        {
          "attributes": {
            "NORMAL": 1,
            "POSITION": 0
          },
          "indices": 2,
          "material": 0,
          "mode": 4
        }
      ]
    },
    {
      "name": "Material2",
      "primitives": [
        {
          "attributes": {
            "NORMAL": 4,
            "POSITION": 3
          },
          "indices": 5,
          "material": 1,
          "mode": 4
        }
      ]
    },
    {
      "name": "Material2",
      "primitives": [
        {
          "attributes": {
            "NORMAL": 7,
            "POSITION": 6
          },
          "indices": 8,
          "material": 1,
          "mode": 4
        }
      ]
    },
    {
      "name": "Material2",
      "primitives": [
        {
          "attributes": {
            "NORMAL": 10,
            "POSITION": 9
          },
          "indices": 11,
          "material": 2,
          "mode": 4
        }
      ]
    },
    {
      "name": "Material2",
      "primitives": [
        {
          "attributes": {
            "NORMAL": 13,
            "POSITION": 12
          },
          "indices": 14,
          "material": 2,
          "mode": 4
        }
      ]
    }
  ],
  "nodes": [
    {
      "children": [
        1
      ],
      "name": "RootNode (gltf orientation matrix)",
      "rotation": [
        -0.70710678118654746,
        -0,
        -0,
        0.70710678118654757
      ]
    },
    {
      "children": [
        2
      ],
      "name": "RootNode (model correction matrix)"
    },
    {
      "children": [
        3
      ],
      "name": "Collada visual scene group"
    },
    {
      "children": [
        4,
        6,
        8,
        10,
        12,
        14,
        16,
        18,
        20,
        22,
        24,
        26,
        28,
        30,
        32
      ],
      "name": "SketchUp"
    },
    {
      "children": [
        5
      ],
      "matrix": [
        0.72310030000000003,
        -0.69074310000000005,
        -8.3266730000000005e-17,
        0,
        0.38882810000000001,
        0.40704240000000003,
        0.82651629999999998,
        0,
        -0.57091040000000004,
        -0.59765420000000002,
        0.56291279999999999,
        0,
        -17.526199999999999,
        -8.6191829999999996,
        29.47476,
        1
      ],
      "name": "skp_camera_Last_Saved_SketchUp_View"
    },
    {
      "name": "ID1"
    },
    {
      "children": [
        7
      ],
      "matrix": [
        1,
        0,
        0,
        0,
        0,
        1,
        0,
        0,
        0,
        0,
        1,
        0,
        0,
        0,
        1,
        1
      ],
      "name": "skp_camera_ALL_ON"
    },
    {
      "name": "ID2"
    },
    {
      "children": [
        9
      ],
      "matrix": [
        1,
        0,
        0,
        0,
        0,
        1,
        0,
        0,
        0,
        0,
        1,
        0,
        0,
        0,
        1,
        1
      ],
      "name": "skp_camera_ALL_OFF"
    },
    {
      "name": "ID3"
    },
    {
      "children": [
        11
      ],
      "matrix": [
        1,
        0,
        0,
        0,
        0,
        1,
        0,
        0,
        0,
        0,
        1,
        0,
        0,
        0,
        1,
        1
      ],
      "name": "skp_camera_INTERIOR"
    },
    {
      "name": "ID4"
    },
    {
      "children": [
        13
      ],
      "matrix": [
        1,
        0,
        0,
        0,
        0,
        1,
        0,
        0,
        0,
        0,
        1,
        0,
        0,
        0,
        1,
        1
      ],
      "name": "skp_camera_EXTERIOR"
    },
    {
      "name": "ID5"
    },
    {
      "children": [
        15
      ],
      "matrix": [
        1,
        0,
        0,
        0,
        0,
        1,
        0,
        0,
        0,
        0,
        1,
        0,
        0,
        0,
        1,
        1
      ],
      "name": "skp_camera_SITE"
    },
    {
      "name": "ID6"
    },
    {
      "children": [
        17
      ],
      "matrix": [
        1,
        0,
        0,
        0,
        0,
        1,
        0,
        0,
        0,
        0,
        1,
        0,
        0,
        0,
        1,
        1
      ],
      "name": "skp_camera_DESIGN"
    },
    {
      "name": "ID7"
    },
    {
      "children": [
        19
      ],
      "matrix": [
        1,
        0,
        0,
        0,
        0,
        1,
        0,
        0,
        0,
        0,
        1,
        0,
        0,
        0,
        1,
        1
      ],
      "name": "skp_camera_3D_PERSPECTIVE"
    },
    {
      "name": "ID8"
    },
    {
      "children": [
        21
      ],
      "matrix": [
        1,
        0,
        0,
        0,
        0,
        1,
        0,
        0,
        0,
        0,
        1,
        0,
        0,
        0,
        1,
        1
      ],
      "name": "skp_camera_2D_DRAWING"
    },
    {
      "name": "ID9"
    },
    {
      "children": [
        23
      ],
      "matrix": [
        1,
        0,
        0,
        0,
        0,
        1,
        0,
        0,
        0,
        0,
        1,
        0,
        0,
        0,
        1,
        1
      ],
      "name": "skp_camera_SCOPE"
    },
    {
      "name": "ID10"
    },
    {
      "children": [
        25
      ],
      "matrix": [
        1,
        0,
        0,
        0,
        0,
        1,
        0,
        0,
        0,
        0,
        1,
        0,
        0,
        0,
        1,
        1
      ],
      "name": "skp_camera_AXIS_CHECK"
    },
    {
      "name": "ID11"
    },
    {
      "children": [
        27
      ],
      "matrix": [
        1,
        0,
        0,
        0,
        0,
        1,
        0,
        0,
        0,
        0,
        1,
        0,
        0,
        0,
        1,
        1
      ],
      "name": "skp_camera_ORIENT_FACES"
    },
    {
      "name": "ID12"
    },
    {
      "children": [
        29
      ],
      "matrix": [
        1,
        0,
        0,
        0,
        0,
        1,
        0,
        0,
        0,
        0,
        1,
        0,
        0,
        0,
        1,
        1
      ],
      "name": "skp_camera_45"
    },
    {
      "name": "ID13"
    },
    {
      "children": [
        31
      ],
      "matrix": [
        1,
        0,
        0,
        0,
        0,
        1,
        0,
        0,
        0,
        0,
        1,
        0,
        0,
        0,
        1,
        1
      ],
      "name": "skp_camera_90"
    },
    {
      "name": "ID14"
    },
    {
      "children": [
        33,
        34,
        35,
        36,
        37
      ],
      "name": "instance_0"
    },
    {
      "mesh": 0,
      "name": "Material2"
    },
    {
      "mesh": 1,
      "name": "Material2"
    },
    {
      "mesh": 2,
      "name": "Material2"
    },
    {
      "mesh": 3,
      "name": "Material2"
    },
    {
      "mesh": 4,
      "name": "Material2"
    }
  ],
  "scene": 0,
  "scenes": [
    {
      "name": "OSG_Scene",
      "nodes": [
        0
      ]
    }
  ]
}

